<svg viewBox="0 0 1216 48" x="0" y="0" fill="none" xmlns="http://www.w3.org/2000/svg"><defs><clipPath id="clip19_1_27447" xmlns="http://www.w3.org/2000/svg">
<rect width="44" height="44" fill="white" transform="translate(1034, 2)"/>
</clipPath></defs><g id="Logos" xmlns="http://www.w3.org/2000/svg">
<g id="Fictional company logo">
<g id="Logomark_2">
<path id="Shape" fill-rule="evenodd" clip-rule="evenodd" d="M22,46c12.15,0 22,-9.85 22,-22c0,-12.15 -9.85,-22 -22,-22c-12.15,0 -22,9.85 -22,22c0,12.15 9.85,22 22,22zM28.863,12.25c0.334,-1.19 -0.817,-1.89 -1.869,-1.14l-14.682,10.46c-1.14,0.81 -0.961,2.43 0.27,2.43h3.866v-0.03h7.535l-6.14,2.17l-2.706,9.61c-0.334,1.19 0.817,1.89 1.869,1.14l14.682,-10.46c1.14,-0.81 0.961,-2.43 -0.27,-2.43h-5.863z" fill="#155EEF"/>
</g>
<g id="Logotype_2">
<path d="M55.38,33.91v-3.48h2.76v-14.04h-2.76v-3.48h10.8c1.28,0 2.39,0.22 3.33,0.66c0.96,0.42 1.7,1.03 2.22,1.83c0.54,0.78 0.81,1.72 0.81,2.82v0.3c0,0.96 -0.18,1.75 -0.54,2.37c-0.36,0.6 -0.79,1.07 -1.29,1.41c-0.48,0.32 -0.94,0.55 -1.38,0.69v0.54c0.44,0.12 0.92,0.35 1.44,0.69c0.52,0.32 0.96,0.79 1.32,1.41c0.38,0.62 0.57,1.43 0.57,2.43v0.3c0,1.16 -0.27,2.16 -0.81,3c-0.54,0.82 -1.29,1.45 -2.25,1.89c-0.94,0.44 -2.04,0.66 -3.3,0.66zM62.1,30.31h3.72c0.86,0 1.55,-0.21 2.07,-0.63c0.54,-0.42 0.81,-1.02 0.81,-1.8v-0.3c0,-0.78 -0.26,-1.38 -0.78,-1.8c-0.52,-0.42 -1.22,-0.63 -2.1,-0.63h-3.72zM62.1,21.55h3.66c0.82,0 1.49,-0.21 2.01,-0.63c0.54,-0.42 0.81,-1 0.81,-1.74v-0.3c0,-0.76 -0.26,-1.34 -0.78,-1.74c-0.52,-0.42 -1.2,-0.63 -2.04,-0.63h-3.66z" fill="#101828"/>
<path d="M81.602,34.33c-1.48,0 -2.81,-0.3 -3.99,-0.9c-1.18,-0.6 -2.11,-1.47 -2.79,-2.61c-0.68,-1.14 -1.02,-2.51 -1.02,-4.11v-0.48c0,-1.6 0.34,-2.97 1.02,-4.11c0.68,-1.14 1.61,-2.01 2.79,-2.61c1.18,-0.6 2.51,-0.9 3.99,-0.9c1.48,0 2.81,0.3 3.99,0.9c1.18,0.6 2.11,1.47 2.79,2.61c0.68,1.14 1.02,2.51 1.02,4.11v0.48c0,1.6 -0.34,2.97 -1.02,4.11c-0.68,1.14 -1.61,2.01 -2.79,2.61c-1.18,0.6 -2.51,0.9 -3.99,0.9zM81.602,30.97c1.16,0 2.12,-0.37 2.88,-1.11c0.76,-0.76 1.14,-1.84 1.14,-3.24v-0.3c0,-1.4 -0.38,-2.47 -1.14,-3.21c-0.74,-0.76 -1.7,-1.14 -2.88,-1.14c-1.16,0 -2.12,0.38 -2.88,1.14c-0.76,0.74 -1.14,1.81 -1.14,3.21v0.3c0,1.4 0.38,2.48 1.14,3.24c0.76,0.74 1.72,1.11 2.88,1.11z" fill="#101828"/>
<path d="M91.391,33.91v-21h3.78v21z" fill="#101828"/>
<path d="M103.56,33.91c-0.98,0 -1.78,-0.3 -2.4,-0.9c-0.6,-0.62 -0.9,-1.44 -0.9,-2.46v-8.4h-3.72v-3.12h3.72v-4.62h3.78v4.62h4.08v3.12h-4.08v7.74c0,0.6 0.28,0.9 0.84,0.9h2.88v3.12z" fill="#101828"/>
<path d="M116.221,34.33c-1.94,0 -3.53,-0.42 -4.77,-1.26c-1.24,-0.84 -1.99,-2.04 -2.25,-3.6l3.48,-0.9c0.14,0.7 0.37,1.25 0.69,1.65c0.34,0.4 0.75,0.69 1.23,0.87c0.5,0.16 1.04,0.24 1.62,0.24c0.88,0 1.53,-0.15 1.95,-0.45c0.42,-0.32 0.63,-0.71 0.63,-1.17c0,-0.46 -0.2,-0.81 -0.6,-1.05c-0.4,-0.26 -1.04,-0.47 -1.92,-0.63l-0.84,-0.15c-1.04,-0.2 -1.99,-0.47 -2.85,-0.81c-0.86,-0.36 -1.55,-0.85 -2.07,-1.47c-0.52,-0.62 -0.78,-1.42 -0.78,-2.4c0,-1.48 0.54,-2.61 1.62,-3.39c1.08,-0.8 2.5,-1.2 4.26,-1.2c1.66,0 3.04,0.37 4.14,1.11c1.1,0.74 1.82,1.71 2.16,2.91l-3.51,1.08c-0.16,-0.76 -0.49,-1.3 -0.99,-1.62c-0.48,-0.32 -1.08,-0.48 -1.8,-0.48c-0.72,0 -1.27,0.13 -1.65,0.39c-0.38,0.24 -0.57,0.58 -0.57,1.02c0,0.48 0.2,0.84 0.6,1.08c0.4,0.22 0.94,0.39 1.62,0.51l0.84,0.15c1.12,0.2 2.13,0.47 3.03,0.81c0.92,0.32 1.64,0.79 2.16,1.41c0.54,0.6 0.81,1.42 0.81,2.46c0,1.56 -0.57,2.77 -1.71,3.63c-1.12,0.84 -2.63,1.26 -4.53,1.26z" fill="#101828"/>
<path d="M124.274,33.91v-21h3.78v7.95h0.54c0.16,-0.32 0.41,-0.64 0.75,-0.96c0.34,-0.32 0.79,-0.58 1.35,-0.78c0.58,-0.22 1.31,-0.33 2.19,-0.33c1.16,0 2.17,0.27 3.03,0.81c0.88,0.52 1.56,1.25 2.04,2.19c0.48,0.92 0.72,2 0.72,3.24v8.88h-3.78v-8.58c0,-1.12 -0.28,-1.96 -0.84,-2.52c-0.54,-0.56 -1.32,-0.84 -2.34,-0.84c-1.16,0 -2.06,0.39 -2.7,1.17c-0.64,0.76 -0.96,1.83 -0.96,3.21v7.56z" fill="#101828"/>
<path d="M141.26,33.91v-14.88h3.78v14.88zM143.15,17.29c-0.68,0 -1.26,-0.22 -1.74,-0.66c-0.46,-0.44 -0.69,-1.02 -0.69,-1.74c0,-0.72 0.23,-1.3 0.69,-1.74c0.48,-0.44 1.06,-0.66 1.74,-0.66c0.7,0 1.28,0.22 1.74,0.66c0.46,0.44 0.69,1.02 0.69,1.74c0,0.72 -0.23,1.3 -0.69,1.74c-0.46,0.44 -1.04,0.66 -1.74,0.66z" fill="#101828"/>
<path d="M150.189,33.91v-11.76h-3.78v-3.12h3.78v-2.76c0,-1.02 0.3,-1.83 0.9,-2.43c0.62,-0.62 1.42,-0.93 2.4,-0.93h3.9v3.12h-2.58c-0.56,0 -0.84,0.3 -0.84,0.9v2.1h3.9v3.12h-3.9v11.76z" fill="#101828"/>
<path d="M164.702,33.91c-0.98,0 -1.78,-0.3 -2.4,-0.9c-0.6,-0.62 -0.9,-1.44 -0.9,-2.46v-8.4h-3.72v-3.12h3.72v-4.62h3.78v4.62h4.08v3.12h-4.08v7.74c0,0.6 0.28,0.9 0.84,0.9h2.88v3.12z" fill="#101828"/>
</g>
</g>
<g id="Fictional company logo_2">
<g id="Logomark_3">
<path id="Shape_2" fill-rule="evenodd" clip-rule="evenodd" d="M216.966,3.45c-0.506,-0.11 -1.026,-0.11 -1.531,0c-0.584,0.12 -1.106,0.41 -1.521,0.64l-0.113,0.07l-14.059,7.81c-0.039,0.02 -0.079,0.04 -0.12,0.06c-0.44,0.24 -0.992,0.55 -1.416,1.01c-0.366,0.4 -0.644,0.87 -0.813,1.38c-0.197,0.6 -0.194,1.23 -0.193,1.73c0.001,0.04 0.001,0.09 0.001,0.13v15.43c0,0.04 0,0.09 -0.001,0.13c-0.001,0.51 -0.004,1.14 0.193,1.73c0.169,0.51 0.447,0.98 0.813,1.38c0.424,0.46 0.976,0.77 1.416,1.01c0.041,0.02 0.081,0.04 0.12,0.06l14.059,7.82l0.113,0.06c0.415,0.23 0.937,0.52 1.521,0.64c0.505,0.11 1.025,0.11 1.531,0c0.583,-0.12 1.105,-0.41 1.52,-0.64l0.113,-0.06l14.059,-7.82c0.018,0 0.035,-0.01 0.053,-0.02c0.022,-0.02 0.045,-0.03 0.067,-0.04c0.44,-0.24 0.992,-0.55 1.416,-1.01c0.366,-0.4 0.644,-0.87 0.813,-1.38c0.197,-0.59 0.194,-1.22 0.193,-1.73c-0.001,-0.04 -0.001,-0.09 -0.001,-0.13v-15.43c0,-0.04 0,-0.09 0.001,-0.13c0.001,-0.5 0.004,-1.13 -0.193,-1.73c-0.169,-0.51 -0.447,-0.98 -0.813,-1.38c-0.424,-0.46 -0.976,-0.77 -1.416,-1.01h-0.001c-0.041,-0.02 -0.08,-0.04 -0.119,-0.06l-14.059,-7.81l-0.113,-0.07c-0.415,-0.23 -0.937,-0.52 -1.52,-0.64zM215.646,7.48c0.288,-0.16 0.435,-0.24 0.545,-0.3h0.009h0.009c0.11,0.06 0.257,0.14 0.545,0.3l12.633,7.02l-13.187,7.32l-13.187,-7.32zM201.001,17.72l13.299,7.39v14.66l-12.713,-7.07c-0.304,-0.17 -0.459,-0.25 -0.568,-0.32l-0.009,-0.01l-0.001,-0.01c-0.008,-0.13 -0.008,-0.31 -0.008,-0.65z" fill="#101828"/>
</g>
<g id="Logotype_3">
<path d="M252.491,30.35h6.048v3.56h-10.665v-18.95h4.617z" fill="#101828"/>
<path d="M262.793,17.28c-0.81,0 -1.476,-0.24 -1.998,-0.7c-0.504,-0.49 -0.756,-1.08 -0.756,-1.79c0,-0.72 0.252,-1.31 0.756,-1.78c0.522,-0.48 1.188,-0.73 1.998,-0.73c0.792,0 1.44,0.25 1.944,0.73c0.522,0.47 0.783,1.06 0.783,1.78c0,0.71 -0.261,1.3 -0.783,1.79c-0.504,0.46 -1.152,0.7 -1.944,0.7zM265.088,18.84v15.07h-4.617v-15.07z" fill="#101828"/>
<path d="M273.888,18.63c1.062,0 1.989,0.21 2.781,0.65c0.81,0.43 1.431,0.99 1.863,1.7v-2.14h4.617v15.04c0,1.39 -0.279,2.64 -0.837,3.76c-0.54,1.13 -1.377,2.03 -2.511,2.7c-1.116,0.66 -2.511,0.99 -4.185,0.99c-2.232,0 -4.041,-0.53 -5.427,-1.59c-1.386,-1.04 -2.178,-2.46 -2.376,-4.26h4.563c0.144,0.57 0.486,1.02 1.026,1.35c0.54,0.34 1.206,0.51 1.998,0.51c0.954,0 1.71,-0.28 2.268,-0.84c0.576,-0.54 0.864,-1.41 0.864,-2.62v-2.13c-0.45,0.7 -1.071,1.28 -1.863,1.73c-0.792,0.43 -1.719,0.65 -2.781,0.65c-1.242,0 -2.367,-0.32 -3.375,-0.95c-1.008,-0.65 -1.809,-1.56 -2.403,-2.73c-0.576,-1.18 -0.864,-2.55 -0.864,-4.1c0,-1.55 0.288,-2.91 0.864,-4.08c0.594,-1.17 1.395,-2.07 2.403,-2.7c1.008,-0.63 2.133,-0.94 3.375,-0.94zM278.532,26.38c0,-1.16 -0.324,-2.06 -0.972,-2.73c-0.63,-0.67 -1.404,-1 -2.322,-1c-0.918,0 -1.701,0.33 -2.349,1c-0.63,0.65 -0.945,1.55 -0.945,2.7c0,1.15 0.315,2.07 0.945,2.75c0.648,0.67 1.431,1 2.349,1c0.918,0 1.692,-0.33 2.322,-1c0.648,-0.66 0.972,-1.57 0.972,-2.72z" fill="#101828"/>
<path d="M295.48,18.68c1.728,0 3.114,0.58 4.158,1.73c1.044,1.13 1.566,2.7 1.566,4.7v8.8h-4.59v-8.18c0,-1.01 -0.261,-1.79 -0.783,-2.35c-0.522,-0.56 -1.224,-0.84 -2.106,-0.84c-0.882,0 -1.584,0.28 -2.106,0.84c-0.522,0.56 -0.783,1.34 -0.783,2.35v8.18h-4.617v-19.98h4.617v6.94c0.468,-0.67 1.107,-1.2 1.917,-1.59c0.81,-0.4 1.719,-0.6 2.727,-0.6z" fill="#101828"/>
<path d="M312.54,29.99v3.92h-2.349c-1.674,0 -2.979,-0.41 -3.915,-1.22c-0.936,-0.82 -1.404,-2.16 -1.404,-4.02v-5.99h-1.836v-3.84h1.836v-3.67h4.617v3.67h3.024v3.84h-3.024v6.05c0,0.45 0.108,0.77 0.324,0.97c0.216,0.2 0.576,0.29 1.08,0.29z" fill="#101828"/>
<path d="M319.458,20.98c0.432,-0.71 1.053,-1.27 1.863,-1.7c0.81,-0.44 1.737,-0.65 2.781,-0.65c1.242,0 2.367,0.31 3.375,0.94c1.008,0.63 1.8,1.53 2.376,2.7c0.594,1.17 0.891,2.53 0.891,4.08c0,1.55 -0.297,2.92 -0.891,4.1c-0.576,1.17 -1.368,2.08 -2.376,2.73c-1.008,0.63 -2.133,0.95 -3.375,0.95c-1.062,0 -1.989,-0.21 -2.781,-0.63c-0.792,-0.43 -1.413,-0.99 -1.863,-1.7v2.11h-4.617v-19.98h4.617zM326.046,26.35c0,-1.15 -0.324,-2.05 -0.972,-2.7c-0.63,-0.67 -1.413,-1 -2.349,-1c-0.918,0 -1.701,0.33 -2.349,1c-0.63,0.67 -0.945,1.57 -0.945,2.73c0,1.15 0.315,2.06 0.945,2.72c0.648,0.67 1.431,1 2.349,1c0.918,0 1.701,-0.33 2.349,-1c0.648,-0.68 0.972,-1.6 0.972,-2.75z" fill="#101828"/>
<path d="M339.755,34.13c-1.476,0 -2.808,-0.32 -3.996,-0.95c-1.17,-0.63 -2.097,-1.53 -2.781,-2.7c-0.666,-1.17 -0.999,-2.54 -0.999,-4.1c0,-1.55 0.342,-2.91 1.026,-4.08c0.684,-1.19 1.62,-2.1 2.808,-2.73c1.188,-0.63 2.52,-0.94 3.996,-0.94c1.476,0 2.808,0.31 3.996,0.94c1.188,0.63 2.124,1.54 2.808,2.73c0.684,1.17 1.026,2.53 1.026,4.08c0,1.54 -0.351,2.91 -1.053,4.1c-0.684,1.17 -1.629,2.07 -2.835,2.7c-1.188,0.63 -2.52,0.95 -3.996,0.95zM339.755,30.13c0.882,0 1.629,-0.32 2.241,-0.97c0.63,-0.65 0.945,-1.58 0.945,-2.78c0,-1.21 -0.306,-2.14 -0.918,-2.78c-0.594,-0.65 -1.332,-0.98 -2.214,-0.98c-0.9,0 -1.647,0.33 -2.241,0.98c-0.594,0.63 -0.891,1.55 -0.891,2.78c0,1.2 0.288,2.13 0.864,2.78c0.594,0.65 1.332,0.97 2.214,0.97z" fill="#101828"/>
<path d="M358.728,33.91l-2.889,-4.19l-2.43,4.19h-4.995l4.968,-7.7l-5.103,-7.37h5.184l2.889,4.16l2.43,-4.16h4.995l-5.049,7.59l5.184,7.48z" fill="#101828"/>
</g>
</g>
<g id="Fictional company logo_3">
<g id="Logomark_4">
<path id="Shape_3" d="M427.707,11.16c-0.433,-0.43 -0.865,-0.86 -1.297,-1.29c-1.297,-1.39 -2.68,-2.77 -4.409,-3.63c-1.988,-1.04 -4.149,-0.78 -6.31,-0.78c-3.285,0 -11.497,0 -16.338,0l3.285,4.41c5.964,0 15.3,0 19.623,0c1.815,0 3.371,0.34 4.84,1.29c0.26,0.09 0.519,0.09 0.606,0z" fill="#66C61C"/>
<path id="Shape_4" d="M431.337,18.25c-0.432,-0.43 -0.864,-0.86 -1.297,-1.29c-1.296,-1.39 -2.679,-2.77 -4.408,-3.64c-1.988,-1.03 -4.149,-0.77 -6.311,-0.77c-2.852,0 -9.681,0 -14.522,0l3.285,4.41c5.878,0 13.917,0 17.894,0c1.815,0 3.371,0.34 4.84,1.29c0.173,0.09 0.346,0.09 0.519,0z" fill="#4CA30D"/>
<path id="Shape_5" d="M435.4,25.17c-0.432,-0.44 -0.864,-0.87 -1.297,-1.3c-1.296,-1.38 -2.679,-2.77 -4.408,-3.63c-1.989,-1.04 -4.15,-0.78 -6.311,-0.78c-2.679,0 -8.558,0 -13.312,0l3.285,4.41c5.705,0 12.966,0 16.597,0c1.815,0 3.371,0.35 4.841,1.3c0.259,0.08 0.432,0.17 0.605,0z" fill="#3B7C0F"/>
<path id="Shape_6" d="M399.007,36.84c0.432,0.43 0.865,0.86 1.297,1.29c1.296,1.39 2.68,2.77 4.408,3.63c1.989,1.04 4.15,0.78 6.311,0.78h16.338l-3.285,-4.41c-5.965,0 -15.301,0 -19.623,0c-1.815,0 -3.371,-0.34 -4.841,-1.29c-0.259,-0.09 -0.432,-0.09 -0.605,0z" fill="#66C61C"/>
<path id="Shape_7" d="M395.376,29.75c0.433,0.43 0.865,0.86 1.297,1.3c1.297,1.38 2.68,2.76 4.409,3.63c1.988,1.03 4.149,0.77 6.31,0.77h14.523l-3.285,-4.4c-5.878,0 -13.918,0 -17.894,0c-1.815,0 -3.371,-0.35 -4.841,-1.3c-0.173,-0.09 -0.346,-0.09 -0.519,0z" fill="#4CA30D"/>
<path id="Shape_8" d="M391.4,22.75c0.432,0.43 0.864,0.86 1.297,1.29c1.296,1.39 2.679,2.77 4.408,3.63c1.989,1.04 4.15,0.78 6.311,0.78h13.312l-3.285,-4.41c-5.705,0 -12.966,0 -16.597,0c-1.815,0 -3.371,-0.34 -4.841,-1.29c-0.259,-0.09 -0.432,-0.09 -0.605,0z" fill="#3B7C0F"/>
</g>
<g id="Logotype_4">
<path d="M445.332,14.01v19.99h4.396v-8.26h8.372v-3.42h-8.372v-4.62h9.66v-3.69z" fill="#101828"/>
<path d="M470.414,25.21h-6.468c0.018,-0.28 0.074,-0.6 0.168,-0.95c0.112,-0.36 0.289,-0.69 0.532,-1.01c0.261,-0.32 0.597,-0.58 1.008,-0.79c0.429,-0.22 0.961,-0.33 1.596,-0.33c0.97,0 1.689,0.26 2.156,0.78c0.485,0.52 0.821,1.29 1.008,2.3zM463.946,27.73h10.444c0.074,-1.12 -0.019,-2.2 -0.28,-3.22c-0.262,-1.03 -0.691,-1.94 -1.288,-2.75c-0.579,-0.8 -1.326,-1.43 -2.24,-1.9c-0.915,-0.49 -1.988,-0.73 -3.22,-0.73c-1.102,0 -2.11,0.2 -3.024,0.59c-0.896,0.39 -1.671,0.93 -2.324,1.62c-0.654,0.68 -1.158,1.48 -1.512,2.41c-0.355,0.94 -0.532,1.94 -0.532,3.03c0,1.12 0.168,2.14 0.504,3.08c0.354,0.93 0.849,1.73 1.484,2.4c0.634,0.68 1.409,1.2 2.324,1.57c0.914,0.36 1.941,0.53 3.08,0.53c1.642,0 3.042,-0.37 4.2,-1.12c1.157,-0.74 2.016,-1.98 2.576,-3.72h-3.5c-0.131,0.45 -0.486,0.88 -1.064,1.29c-0.579,0.39 -1.27,0.59 -2.072,0.59c-1.12,0 -1.979,-0.29 -2.576,-0.87c-0.598,-0.58 -0.924,-1.51 -0.98,-2.8z" fill="#101828"/>
<path d="M475.74,23.98c0.056,-0.94 0.289,-1.71 0.7,-2.33c0.41,-0.61 0.933,-1.11 1.568,-1.48c0.634,-0.38 1.344,-0.64 2.128,-0.79c0.802,-0.16 1.605,-0.25 2.408,-0.25c0.728,0 1.465,0.06 2.212,0.17c0.746,0.09 1.428,0.29 2.044,0.59c0.616,0.3 1.12,0.72 1.512,1.26c0.392,0.52 0.588,1.22 0.588,2.1v7.53c0,0.65 0.037,1.28 0.112,1.88c0.074,0.59 0.205,1.04 0.392,1.34h-4.032c-0.075,-0.22 -0.14,-0.45 -0.196,-0.67c-0.038,-0.24 -0.066,-0.49 -0.084,-0.73c-0.635,0.65 -1.382,1.11 -2.24,1.37c-0.859,0.26 -1.736,0.39 -2.632,0.39c-0.691,0 -1.335,-0.08 -1.932,-0.25c-0.598,-0.17 -1.12,-0.43 -1.568,-0.78c-0.448,-0.36 -0.803,-0.8 -1.064,-1.35c-0.243,-0.54 -0.364,-1.18 -0.364,-1.93c0,-0.82 0.14,-1.49 0.42,-2.01c0.298,-0.55 0.672,-0.97 1.12,-1.29c0.466,-0.32 0.989,-0.55 1.568,-0.7c0.597,-0.17 1.194,-0.3 1.792,-0.39c0.597,-0.1 1.185,-0.17 1.764,-0.23c0.578,-0.05 1.092,-0.14 1.54,-0.25c0.448,-0.11 0.802,-0.27 1.064,-0.48c0.261,-0.22 0.382,-0.54 0.364,-0.95c0,-0.43 -0.075,-0.76 -0.224,-1.01c-0.131,-0.26 -0.318,-0.45 -0.56,-0.58c-0.224,-0.15 -0.495,-0.25 -0.812,-0.28c-0.299,-0.06 -0.626,-0.09 -0.98,-0.09c-0.784,0 -1.4,0.17 -1.848,0.51c-0.448,0.33 -0.71,0.89 -0.784,1.68zM484.924,26.92c-0.168,0.15 -0.383,0.27 -0.644,0.36c-0.243,0.07 -0.514,0.14 -0.812,0.2c-0.28,0.05 -0.579,0.1 -0.896,0.14c-0.318,0.03 -0.635,0.08 -0.952,0.14c-0.299,0.05 -0.598,0.13 -0.896,0.22c-0.28,0.09 -0.532,0.22 -0.756,0.39c-0.206,0.15 -0.374,0.35 -0.504,0.59c-0.131,0.24 -0.196,0.55 -0.196,0.92c0,0.36 0.065,0.66 0.196,0.9c0.13,0.24 0.308,0.44 0.532,0.59c0.224,0.13 0.485,0.22 0.784,0.28c0.298,0.05 0.606,0.08 0.924,0.08c0.784,0 1.39,-0.13 1.82,-0.39c0.429,-0.26 0.746,-0.57 0.952,-0.92c0.205,-0.38 0.326,-0.75 0.364,-1.12c0.056,-0.38 0.084,-0.68 0.084,-0.9z" fill="#101828"/>
<path d="M496.186,19.52v-4.34h-3.976v4.34h-2.408v2.66h2.408v8.54c0,0.73 0.121,1.32 0.364,1.77c0.243,0.45 0.569,0.79 0.98,1.03c0.429,0.25 0.915,0.41 1.456,0.48c0.56,0.09 1.148,0.14 1.764,0.14c0.392,0 0.793,-0.01 1.204,-0.03c0.411,-0.02 0.784,-0.05 1.12,-0.11v-3.08c-0.187,0.04 -0.383,0.07 -0.588,0.08c-0.205,0.02 -0.42,0.03 -0.644,0.03c-0.672,0 -1.12,-0.11 -1.344,-0.33c-0.224,-0.23 -0.336,-0.68 -0.336,-1.35v-7.17h2.912v-2.66z" fill="#101828"/>
<path d="M500.15,14.01v19.99h3.976v-7.59c0,-1.47 0.242,-2.53 0.728,-3.16c0.485,-0.66 1.269,-0.98 2.352,-0.98c0.952,0 1.614,0.3 1.988,0.89c0.373,0.58 0.56,1.47 0.56,2.66v8.18h3.976v-8.9c0,-0.9 -0.084,-1.71 -0.252,-2.44c-0.15,-0.75 -0.42,-1.37 -0.812,-1.88c-0.392,-0.52 -0.934,-0.92 -1.624,-1.2c-0.672,-0.3 -1.54,-0.45 -2.604,-0.45c-0.747,0 -1.512,0.2 -2.296,0.59c-0.784,0.37 -1.428,0.98 -1.932,1.82h-0.084v-7.53z" fill="#101828"/>
<path d="M525.651,25.21h-6.468c0.019,-0.28 0.075,-0.6 0.168,-0.95c0.112,-0.36 0.29,-0.69 0.532,-1.01c0.262,-0.32 0.598,-0.58 1.008,-0.79c0.43,-0.22 0.962,-0.33 1.596,-0.33c0.971,0 1.69,0.26 2.156,0.78c0.486,0.52 0.822,1.29 1.008,2.3zM519.183,27.73h10.444c0.075,-1.12 -0.018,-2.2 -0.28,-3.22c-0.261,-1.03 -0.69,-1.94 -1.288,-2.75c-0.578,-0.8 -1.325,-1.43 -2.24,-1.9c-0.914,-0.49 -1.988,-0.73 -3.22,-0.73c-1.101,0 -2.109,0.2 -3.024,0.59c-0.896,0.39 -1.67,0.93 -2.324,1.62c-0.653,0.68 -1.157,1.48 -1.512,2.41c-0.354,0.94 -0.532,1.94 -0.532,3.03c0,1.12 0.168,2.14 0.504,3.08c0.355,0.93 0.85,1.73 1.484,2.4c0.635,0.68 1.41,1.2 2.324,1.57c0.915,0.36 1.942,0.53 3.08,0.53c1.643,0 3.043,-0.37 4.2,-1.12c1.158,-0.74 2.016,-1.98 2.576,-3.72h-3.5c-0.13,0.45 -0.485,0.88 -1.064,1.29c-0.578,0.39 -1.269,0.59 -2.072,0.59c-1.12,0 -1.978,-0.29 -2.576,-0.87c-0.597,-0.58 -0.924,-1.51 -0.98,-2.8z" fill="#101828"/>
<path d="M531.145,19.52v14.48h3.976v-6.52c0,-0.66 0.066,-1.26 0.196,-1.82c0.131,-0.56 0.346,-1.05 0.644,-1.46c0.318,-0.43 0.728,-0.77 1.232,-1.01c0.504,-0.24 1.12,-0.36 1.848,-0.36c0.243,0 0.495,0.02 0.756,0.05c0.262,0.02 0.486,0.05 0.672,0.09v-3.7c-0.317,-0.09 -0.606,-0.14 -0.868,-0.14c-0.504,0 -0.989,0.08 -1.456,0.23c-0.466,0.15 -0.905,0.36 -1.316,0.64c-0.41,0.26 -0.774,0.59 -1.092,0.98c-0.317,0.37 -0.569,0.78 -0.756,1.23h-0.056v-2.69z" fill="#101828"/>
<path d="M546.004,30.3v-12.6h3.136c1.083,0 1.988,0.16 2.716,0.48c0.747,0.3 1.344,0.74 1.792,1.32c0.448,0.57 0.766,1.27 0.952,2.1c0.206,0.8 0.308,1.7 0.308,2.71c0,1.1 -0.14,2.04 -0.42,2.8c-0.28,0.77 -0.653,1.39 -1.12,1.88c-0.466,0.46 -0.998,0.8 -1.596,1.01c-0.597,0.2 -1.213,0.3 -1.848,0.3zM541.608,14.01v19.99h8.624c1.531,0 2.856,-0.25 3.976,-0.76c1.139,-0.52 2.082,-1.23 2.828,-2.12c0.766,-0.9 1.335,-1.96 1.708,-3.2c0.374,-1.23 0.56,-2.57 0.56,-4.03c0,-1.66 -0.233,-3.11 -0.7,-4.34c-0.448,-1.23 -1.082,-2.26 -1.904,-3.08c-0.802,-0.82 -1.764,-1.44 -2.884,-1.85c-1.101,-0.41 -2.296,-0.61 -3.584,-0.61z" fill="#101828"/>
<path d="M570.846,25.21h-6.468c0.019,-0.28 0.075,-0.6 0.168,-0.95c0.112,-0.36 0.289,-0.69 0.532,-1.01c0.261,-0.32 0.597,-0.58 1.008,-0.79c0.429,-0.22 0.961,-0.33 1.596,-0.33c0.971,0 1.689,0.26 2.156,0.78c0.485,0.52 0.821,1.29 1.008,2.3zM564.378,27.73h10.444c0.075,-1.12 -0.019,-2.2 -0.28,-3.22c-0.261,-1.03 -0.691,-1.94 -1.288,-2.75c-0.579,-0.8 -1.325,-1.43 -2.24,-1.9c-0.915,-0.49 -1.988,-0.73 -3.22,-0.73c-1.101,0 -2.109,0.2 -3.024,0.59c-0.896,0.39 -1.671,0.93 -2.324,1.62c-0.653,0.68 -1.157,1.48 -1.512,2.41c-0.355,0.94 -0.532,1.94 -0.532,3.03c0,1.12 0.168,2.14 0.504,3.08c0.355,0.93 0.849,1.73 1.484,2.4c0.635,0.68 1.409,1.2 2.324,1.57c0.915,0.36 1.941,0.53 3.08,0.53c1.643,0 3.043,-0.37 4.2,-1.12c1.157,-0.74 2.016,-1.98 2.576,-3.72h-3.5c-0.131,0.45 -0.485,0.88 -1.064,1.29c-0.579,0.39 -1.269,0.59 -2.072,0.59c-1.12,0 -1.979,-0.29 -2.576,-0.87c-0.597,-0.58 -0.924,-1.51 -0.98,-2.8z" fill="#101828"/>
<path d="M584.348,34l4.9,-14.48h-3.948l-3.052,9.89h-0.056l-3.052,-9.89h-4.172l4.956,14.48z" fill="#101828"/>
</g>
</g>
<g id="Fictional company logo_4">
<g id="Logomark_5">
<circle id="Shape_9" cx="638.6" cy="24.25" r="20.5" stroke="#6927DA" stroke-width="3"/>
<path id="Shape_10" d="M653.096,9.75c2.011,2.02 2.635,5.41 1.551,9.63c-1.074,4.17 -3.776,8.86 -7.915,13c-4.14,4.14 -8.829,6.84 -13.005,7.92c-4.214,1.08 -7.611,0.46 -9.623,-1.55c-2.011,-2.02 -2.635,-5.41 -1.551,-9.63c1.074,-4.17 3.776,-8.86 7.915,-13c4.139,-4.14 8.829,-6.84 13.005,-7.92c4.214,-1.08 7.611,-0.46 9.623,1.55z" stroke="#6927DA" stroke-width="3"/>
<path id="Shape_11" d="M624.104,9.75c2.012,-2.01 5.409,-2.63 9.623,-1.55c4.176,1.08 8.865,3.78 13.005,7.92c4.139,4.14 6.841,8.83 7.915,13c1.084,4.22 0.46,7.61 -1.552,9.63c-2.011,2.01 -5.408,2.63 -9.622,1.55c-4.176,-1.08 -8.866,-3.78 -13.005,-7.92c-4.139,-4.14 -6.842,-8.83 -7.916,-13c-1.083,-4.22 -0.459,-7.61 1.552,-9.63z" stroke="#6927DA" stroke-width="3"/>
</g>
<g id="Logotype_5">
<path d="M679.45,34.24c4.71,0 7.89,-2.46 7.89,-6.39c0,-8.31 -11.04,-4.77 -11.04,-9.15c0,-1.23 1.11,-2.07 2.88,-2.07c2.01,0 3.27,1.08 3.42,2.73h4.29c-0.12,-3.99 -3.18,-6.6 -7.71,-6.6c-4.26,0 -7.26,2.46 -7.26,5.94c0,8.25 10.89,5.1 10.89,9.21c0,1.59 -1.35,2.43 -3.36,2.43c-2.22,0 -3.63,-1.35 -3.81,-3.48h-4.32c0.18,4.47 3.36,7.38 8.13,7.38z" fill="#101828"/>
<path d="M688.36,40.12h4.17v-7.47c0.81,1.02 2.28,1.59 3.99,1.59c4.35,0 7.29,-3.09 7.29,-7.8c0,-4.71 -2.7,-7.8 -6.93,-7.8c-1.95,0 -3.45,0.72 -4.35,1.89v-1.65h-4.17zM696.01,30.64c-2.25,0 -3.72,-1.68 -3.72,-4.2c0,-2.55 1.47,-4.23 3.72,-4.23c2.19,0 3.69,1.68 3.69,4.23c0,2.52 -1.5,4.2 -3.69,4.2z" fill="#101828"/>
<path d="M704.819,34h4.17v-8.28c0,-1.95 1.29,-3.36 3.12,-3.36c1.74,0 2.94,1.32 2.94,3.15v8.49h4.17v-9.42c0,-3.48 -2.22,-5.94 -5.61,-5.94c-2.1,0 -3.75,0.87 -4.62,2.34v-8.67h-4.17z" fill="#101828"/>
<path d="M730.884,28.87c-0.33,1.29 -1.44,1.95 -3.12,1.95c-2.1,0 -3.45,-1.32 -3.75,-3.45h10.86c0.03,-0.33 0.06,-0.78 0.06,-1.35c0,-3.45 -2.13,-7.38 -7.47,-7.38c-5.13,0 -7.47,3.93 -7.47,7.77c0,3.81 2.64,7.83 7.77,7.83c3.72,0 6.6,-2.1 7.2,-5.37zM727.464,21.7c2.01,0 3.18,1.35 3.3,3.03h-6.69c0.36,-2.1 1.5,-3.03 3.39,-3.03z" fill="#101828"/>
<path d="M745.871,22.36v-3.48h-2.152c-1.83,0 -2.97,0.63 -3.78,2.52v-2.52h-4.2v15.12h4.2v-7.35c0,-2.58 0.93,-4.29 3,-4.29z" fill="#101828"/>
<path d="M760.271,18.88h-4.2v8.28c0,1.92 -1.29,3.36 -3.12,3.36c-1.71,0 -2.91,-1.32 -2.91,-3.15v-8.49h-4.17v9.42c0,3.45 2.22,5.94 5.61,5.94c2.07,0 3.75,-0.9 4.59,-2.34v2.1h4.2z" fill="#101828"/>
<path d="M762.071,34h4.17v-21.69h-4.17z" fill="#101828"/>
<path d="M778.146,28.87c-0.33,1.29 -1.44,1.95 -3.12,1.95c-2.1,0 -3.45,-1.32 -3.75,-3.45h10.86c0.03,-0.33 0.06,-0.78 0.06,-1.35c0,-3.45 -2.13,-7.38 -7.47,-7.38c-5.13,0 -7.47,3.93 -7.47,7.77c0,3.81 2.64,7.83 7.77,7.83c3.72,0 6.6,-2.1 7.2,-5.37zM774.726,21.7c2.01,0 3.18,1.35 3.3,3.03h-6.69c0.36,-2.1 1.5,-3.03 3.39,-3.03z" fill="#101828"/>
</g>
</g>
<g id="Fictional company logo_5">
<g id="Logomark_6">
<path id="Shape_12" d="M840.229,2h-16.858l-13.571,13.57v16.86l13.571,13.57h16.858l13.571,-13.57v-16.86zM825.704,32.64l-8.694,-8.69l8.694,-8.7c3.286,-3.28 8.694,-3.28 11.98,0l8.694,8.7l-8.694,8.69c-3.286,3.29 -8.588,3.29 -11.98,0z" fill="#444CE7"/>
</g>
<g id="Logotype_6">
<path d="M873.14,34.24c2.7,0 4.92,-1.38 5.61,-3.45v3.21h3.99v-8.1c0,-1.83 -1.44,-3.39 -3.39,-3.39h-5.7v3.39h4.05c0.51,0 0.84,0.33 0.84,0.84c0,1.95 -2.58,3.84 -5.19,3.84c-3.48,0 -6.24,-2.73 -6.24,-7.08c0,-4.35 2.76,-6.87 6.33,-6.87c2.7,0 4.56,1.47 4.89,3.72h4.47c-0.27,-4.5 -4.05,-7.59 -9.33,-7.59c-5.55,0 -10.65,3.57 -10.65,10.74c0,7.17 4.95,10.74 10.32,10.74z" fill="#101828"/>
<path d="M884.453,34h4.167v-21.69h-4.167z" fill="#101828"/>
<path d="M897.62,34.24c4.65,0 7.98,-3.3 7.98,-7.8c0,-4.5 -3.33,-7.8 -7.98,-7.8c-4.65,0 -7.98,3.3 -7.98,7.8c0,4.5 3.33,7.8 7.98,7.8zM897.62,30.64c-2.25,0 -3.78,-1.71 -3.78,-4.2c0,-2.52 1.53,-4.23 3.78,-4.23c2.25,0 3.78,1.71 3.78,4.23c0,2.49 -1.53,4.2 -3.78,4.2z" fill="#101828"/>
<path d="M914.93,34.24c4.47,0 7.14,-3.09 7.14,-7.8c0,-4.71 -2.67,-7.8 -7.08,-7.8c-1.89,0 -3.36,0.72 -4.2,1.83v-8.16h-4.17v21.69h4.17v-1.65c0.84,1.17 2.4,1.89 4.14,1.89zM914.27,30.64c-2.25,0 -3.72,-1.68 -3.72,-4.2c0,-2.55 1.47,-4.23 3.72,-4.23c2.19,0 3.69,1.68 3.69,4.23c0,2.52 -1.5,4.2 -3.69,4.2z" fill="#101828"/>
<path d="M929.05,18.64c-4.14,0 -6.6,2.43 -6.78,5.46h3.72c0.06,-1.26 0.99,-2.4 2.82,-2.4c1.71,0 2.7,0.87 2.7,2.13c0,0.63 -0.39,1.11 -1.14,1.11h-2.55c-3.3,0 -5.52,1.8 -5.52,4.77c0,2.58 2.01,4.53 4.95,4.53c2.07,0 3.75,-0.93 4.26,-2.34v2.1h4.14v-9.72c0,-3.42 -2.79,-5.64 -6.6,-5.64zM928.3,31.21c-1.17,0 -2.01,-0.69 -2.01,-1.68c0,-1.17 0.9,-1.95 2.16,-1.95h3.06v0.21c0,1.92 -1.17,3.42 -3.21,3.42z" fill="#101828"/>
<path d="M937.25,34h4.17v-21.69h-4.17z" fill="#101828"/>
<path d="M943.64,34h8.58c4.44,0 7.5,-2.28 7.5,-6.27c0,-2.76 -1.62,-4.44 -3.54,-5.19c1.23,-0.66 2.46,-2.16 2.46,-4.14c0,-3.51 -2.85,-5.4 -6.66,-5.4h-8.34zM948.08,21.01v-4.44h3.48c2.01,0 2.91,0.81 2.91,2.22c0,1.41 -0.9,2.22 -2.82,2.22zM948.08,30.1v-5.28h3.75c2.49,0 3.6,0.96 3.6,2.67c0,1.71 -1.11,2.61 -3.6,2.61z" fill="#101828"/>
<path d="M966.97,18.64c-4.14,0 -6.6,2.43 -6.78,5.46h3.72c0.06,-1.26 0.99,-2.4 2.82,-2.4c1.71,0 2.7,0.87 2.7,2.13c0,0.63 -0.39,1.11 -1.14,1.11h-2.55c-3.3,0 -5.52,1.8 -5.52,4.77c0,2.58 2.01,4.53 4.95,4.53c2.07,0 3.75,-0.93 4.26,-2.34v2.1h4.14v-9.72c0,-3.42 -2.79,-5.64 -6.6,-5.64zM966.22,31.21c-1.17,0 -2.01,-0.69 -2.01,-1.68c0,-1.17 0.9,-1.95 2.16,-1.95h3.06v0.21c0,1.92 -1.17,3.42 -3.21,3.42z" fill="#101828"/>
<path d="M974.93,34h4.2v-8.28c0,-1.95 1.29,-3.36 3.12,-3.36c1.74,0 2.91,1.32 2.91,3.15v8.49h4.2v-9.42c0,-3.48 -2.22,-5.94 -5.64,-5.94c-2.07,0 -3.75,0.87 -4.59,2.34v-2.1h-4.2z" fill="#101828"/>
<path d="M1001.33,34h5.04l-6.51,-9.18l6.03,-5.94h-5.28l-5.25,5.16v-11.73h-4.2v21.69h4.2v-4.74l1.68,-1.65z" fill="#101828"/>
</g>
</g>
<g id="Fictional company logo_6">
<g id="Logomark_7" clip-path="url(#clip19_1_27447)">
<g id="Shape_13">
<path d="M1061.27,4.12l-4.22,-1.13l-3.56,13.28l-3.21,-11.99l-4.22,1.13l3.47,12.95l-8.64,-8.64l-3.09,3.09l9.48,9.48l-11.81,-3.17l-1.13,4.23l12.9,3.45c-0.15,-0.64 -0.23,-1.3 -0.23,-1.98c0,-4.83 3.92,-8.74 8.74,-8.74c4.83,0 8.74,3.91 8.74,8.74c0,0.68 -0.08,1.34 -0.22,1.97l11.72,3.14l1.13,-4.22l-12.95,-3.47l11.81,-3.16l-1.13,-4.22l-12.95,3.46l8.64,-8.64l-3.09,-3.09l-9.35,9.35z" fill="#FF4405"/>
<path d="M1064.26,26.84c-0.37,1.53 -1.13,2.9 -2.18,4l8.49,8.5l3.09,-3.09z" fill="#FF4405"/>
<path d="M1062,30.93c-1.06,1.09 -2.4,1.89 -3.91,2.31l3.09,11.53l4.22,-1.13z" fill="#FF4405"/>
<path d="M1057.93,33.28c-0.69,0.18 -1.42,0.28 -2.18,0.28c-0.81,0 -1.59,-0.11 -2.33,-0.32l-3.09,11.55l4.22,1.13z" fill="#FF4405"/>
<path d="M1053.27,33.2c-1.48,-0.44 -2.8,-1.26 -3.84,-2.34l-8.51,8.51l3.09,3.09z" fill="#FF4405"/>
<path d="M1049.36,30.78c-1.02,-1.09 -1.76,-2.45 -2.11,-3.95l-11.77,3.15l1.14,4.22z" fill="#FF4405"/>
</g>
</g>
<g id="Logotype_7">
<path d="M1102.52,12.91v15.21l-9.75,-15.21h-3.9v21h3.9v-15.09l9.75,15.09h3.9v-21z" fill="#101828"/>
<path d="M1108.18,16.84h4.02v-3.93h-4.02zM1108.24,33.91v-15h3.9v15z" fill="#101828"/>
<path d="M1128.92,26.41c0,-5.19 -3.69,-7.65 -7.59,-7.68c-3.93,-0.03 -7.56,2.49 -7.56,7.68c0,5.19 3.63,7.71 7.56,7.68c3.57,-0.03 6.03,-1.68 7.17,-4.41l-3.03,-1.26c-0.93,1.86 -2.4,2.52 -4.14,2.55c-1.5,0.03 -3.21,-0.69 -3.57,-3.36h11.07c0.06,-0.39 0.09,-0.78 0.09,-1.2zM1121.33,21.82c1.5,0.03 3.03,0.84 3.51,3h-7.02c0.51,-2.19 2.04,-3.03 3.51,-3z" fill="#101828"/>
<path d="M1137.93,21.7v-2.97h-2.46v-4.02l-3.9,1.2v2.82h-2.46v2.97h2.46v7.77c0,2.94 0.24,4.44 4.8,4.44h1.05v-3.42h-1.05c-0.72,0 -0.9,-0.12 -0.9,-1.02v-7.77z" fill="#101828"/>
<path d="M1143.73,30.64l8.28,-8.46v-3.27h-12.42v3.27h8.04l-8.28,8.46v3.27h12.75v-3.27z" fill="#101828"/>
<path d="M1153.49,29.68l3.93,-0.6c0.27,1.5 2.04,2.07 3.12,2.07c1.11,0 3.03,-0.24 3.03,-2.04c0,-3.51 -9.63,0.87 -9.63,-5.85c0,-4.32 5.01,-4.56 6.6,-4.56c1.5,0 5.85,0.24 6.75,3.72l-3.72,0.78c-0.33,-1.59 -2.01,-1.89 -2.91,-1.89c-0.9,0 -2.82,0.21 -2.82,1.95c0,3.48 9.63,-0.96 9.63,5.85c0,4.59 -5.28,4.98 -6.93,4.98c-1.5,0 -6.27,-0.39 -7.05,-4.41z" fill="#101828"/>
<path d="M1172.54,26.41c0,3.66 1.95,4.77 3.99,4.74c1.83,-0.03 3.09,-0.78 3.84,-2.88l3.21,1.56c-1.17,3.06 -4.02,4.23 -7.05,4.26c-3.93,0.03 -7.89,-2.49 -7.89,-7.68c0,-5.19 3.96,-7.71 7.89,-7.68c3.03,0.03 5.88,1.2 7.05,4.26l-3.21,1.56c-0.75,-2.1 -2.01,-2.85 -3.84,-2.88c-2.04,-0.03 -3.99,1.08 -3.99,4.74z" fill="#101828"/>
<path d="M1194.05,18.67c-2.01,0 -3.84,1.05 -5.01,3.3v-9.06h-3.9v21h3.9v-5.31c0,-6.87 2.85,-7.44 3.9,-7.44c1.68,0 1.92,1.74 1.92,4.29v8.46h3.9v-8.46c0,-3.18 -0.51,-6.78 -4.71,-6.78z" fill="#101828"/>
<path d="M1215.23,26.41c0,-5.19 -3.69,-7.65 -7.59,-7.68c-3.93,-0.03 -7.56,2.49 -7.56,7.68c0,5.19 3.63,7.71 7.56,7.68c3.57,-0.03 6.03,-1.68 7.17,-4.41l-3.03,-1.26c-0.93,1.86 -2.4,2.52 -4.14,2.55c-1.5,0.03 -3.21,-0.69 -3.57,-3.36h11.07c0.06,-0.39 0.09,-0.78 0.09,-1.2zM1207.64,21.82c1.5,0.03 3.03,0.84 3.51,3h-7.02c0.51,-2.19 2.04,-3.03 3.51,-3z" fill="#101828"/>
</g>
</g>
</g></svg>